<svg width="96" height="96" viewBox="0 0 96 96" fill="none" xmlns="http://www.w3.org/2000/svg">
  <rect width="96" height="96" rx="20" fill="#D4AF37"/>
  <path d="M32 28C30.8954 28 30 28.8954 30 30C30 31.1046 30.8954 32 32 32H36L42 56H58L64 32H68C69.1046 32 70 31.1046 70 30C70 28.8954 69.1046 28 68 28H32Z" fill="#1a1a2e"/>
  <path d="M40 58C38.3431 58 37 59.3431 37 61V63C37 64.6569 38.3431 66 40 66C41.6569 66 43 64.6569 43 63V61C43 59.3431 41.6569 58 40 58Z" fill="#1a1a2e"/>
  <path d="M56 58C54.3431 58 53 59.3431 53 61V63C53 64.6569 54.3431 66 56 66C57.6569 66 59 64.6569 59 63V61C59 59.3431 57.6569 58 56 58Z" fill="#1a1a2e"/>
  <rect x="38" y="38" width="20" height="12" rx="2" fill="#D4AF37" opacity="0.6"/>
</svg>
