<svg width="96" height="96" viewBox="0 0 96 96" fill="none" xmlns="http://www.w3.org/2000/svg">
  <rect width="96" height="96" rx="20" fill="#D4AF37"/>
  <circle cx="48" cy="48" r="20" stroke="#1a1a2e" stroke-width="3" fill="none"/>
  <circle cx="48" cy="48" r="4" fill="#1a1a2e"/>
  <rect x="46" y="28" width="4" height="8" rx="2" fill="#1a1a2e"/>
  <rect x="46" y="60" width="4" height="8" rx="2" fill="#1a1a2e"/>
  <rect x="28" y="46" width="8" height="4" rx="2" fill="#1a1a2e"/>
  <rect x="60" y="46" width="8" height="4" rx="2" fill="#1a1a2e"/>
  <rect x="35" y="35" width="4" height="6" rx="2" fill="#1a1a2e" transform="rotate(-45 35 35)"/>
  <rect x="61" y="35" width="4" height="6" rx="2" fill="#1a1a2e" transform="rotate(45 61 35)"/>
  <rect x="35" y="61" width="4" height="6" rx="2" fill="#1a1a2e" transform="rotate(-135 35 61)"/>
  <rect x="61" y="61" width="4" height="6" rx="2" fill="#1a1a2e" transform="rotate(135 61 61)"/>
</svg>
